<?xml version="1.0" encoding="UTF-8"?>
<svg width="30px" height="30px" viewBox="0 0 30 30" version="1.1" xmlns="http://www.w3.org/2000/svg" xmlns:xlink="http://www.w3.org/1999/xlink">
    <title>Artboard Copy 10</title>
    <g id="Artboard-Copy-10" stroke="none" stroke-width="1" fill="none" fill-rule="evenodd">
        <path d="M2.71,18.65 L3.72,16.66 L4.77,18.65 L6.56,18.65 L4.73,15.8 L6.29,13.34 L4.61,13.34 L3.79,15.04 L2.94,13.34 L1.17,13.34 L2.82,15.86 L1,18.65 L2.71,18.65 Z M19.71,18.65 L20.72,16.66 L21.77,18.65 L23.56,18.65 L21.73,15.8 L23.29,13.34 L21.61,13.34 L20.79,15.04 L19.94,13.34 L18.17,13.34 L19.82,15.86 L18,18.65 L19.71,18.65 Z M27.52,18.82 C28.25,18.82 28.84,18.61 29.26,18.34 L28.74,17.33 C28.49,17.47 28.18,17.57 27.81,17.57 C27.28,17.57 27.05,17.37 27.05,16.84 L27.05,14.43 L28.6,14.43 L28.76,13.34 L27.05,13.34 L27.05,12 L25.47,12.19 L25.47,13.34 L24.36,13.34 L24.36,14.43 L25.47,14.43 L25.47,16.84 C25.47,18.06 26.13,18.82 27.52,18.82 Z M3.74,29.17 C4.47,29.17 5.06,28.96 5.48,28.69 L4.96,27.68 C4.71,27.82 4.4,27.92 4.03,27.92 C3.5,27.92 3.27,27.72 3.27,27.19 L3.27,24.78 L4.82,24.78 L4.98,23.69 L3.27,23.69 L3.27,22.35 L1.69,22.54 L1.69,23.69 L0.58,23.69 L0.58,24.78 L1.69,24.78 L1.69,27.19 C1.69,28.41 2.35,29.17 3.74,29.17 Z M7.93,29 L8.94,27.01 L9.99,29 L11.78,29 L9.95,26.15 L11.51,23.69 L9.83,23.69 L9.01,25.39 L8.16,23.69 L6.39,23.69 L8.04,26.21 L6.22,29 L7.93,29 Z M15.74,29.17 C16.47,29.17 17.06,28.96 17.48,28.69 L16.96,27.68 C16.71,27.82 16.4,27.92 16.03,27.92 C15.5,27.92 15.27,27.72 15.27,27.19 L15.27,24.78 L16.82,24.78 L16.98,23.69 L15.27,23.69 L15.27,22.35 L13.69,22.54 L13.69,23.69 L12.58,23.69 L12.58,24.78 L13.69,24.78 L13.69,27.19 C13.69,28.41 14.35,29.17 15.74,29.17 Z M19.93,29 L20.94,27.01 L21.99,29 L23.78,29 L21.95,26.15 L23.51,23.69 L21.83,23.69 L21.01,25.39 L20.16,23.69 L18.39,23.69 L20.04,26.21 L18.22,29 L19.93,29 Z M27.74,29.17 C28.47,29.17 29.06,28.96 29.48,28.69 L28.96,27.68 C28.71,27.82 28.4,27.92 28.03,27.92 C27.5,27.92 27.27,27.72 27.27,27.19 L27.27,24.78 L28.82,24.78 L28.98,23.69 L27.27,23.69 L27.27,22.35 L25.69,22.54 L25.69,23.69 L24.58,23.69 L24.58,24.78 L25.69,24.78 L25.69,27.19 C25.69,28.41 26.35,29.17 27.74,29.17 Z M3.74,8.17 C4.47,8.17 5.06,7.96 5.48,7.69 L4.96,6.68 C4.71,6.82 4.4,6.92 4.03,6.92 C3.5,6.92 3.27,6.72 3.27,6.19 L3.27,3.78 L4.82,3.78 L4.98,2.69 L3.27,2.69 L3.27,1.35 L1.69,1.54 L1.69,2.69 L0.58,2.69 L0.58,3.78 L1.69,3.78 L1.69,6.19 C1.69,7.41 2.35,8.17 3.74,8.17 Z M7.93,8 L8.94,6.01 L9.99,8 L11.78,8 L9.95,5.15 L11.51,2.69 L9.83,2.69 L9.01,4.39 L8.16,2.69 L6.39,2.69 L8.04,5.21 L6.22,8 L7.93,8 Z M15.74,8.17 C16.47,8.17 17.06,7.96 17.48,7.69 L16.96,6.68 C16.71,6.82 16.4,6.92 16.03,6.92 C15.5,6.92 15.27,6.72 15.27,6.19 L15.27,3.78 L16.82,3.78 L16.98,2.69 L15.27,2.69 L15.27,1.35 L13.69,1.54 L13.69,2.69 L12.58,2.69 L12.58,3.78 L13.69,3.78 L13.69,6.19 C13.69,7.41 14.35,8.17 15.74,8.17 Z M19.93,8 L20.94,6.01 L21.99,8 L23.78,8 L21.95,5.15 L23.51,2.69 L21.83,2.69 L21.01,4.39 L20.16,2.69 L18.39,2.69 L20.04,5.21 L18.22,8 L19.93,8 Z M27.74,8.17 C28.47,8.17 29.06,7.96 29.48,7.69 L28.96,6.68 C28.71,6.82 28.4,6.92 28.03,6.92 C27.5,6.92 27.27,6.72 27.27,6.19 L27.27,3.78 L28.82,3.78 L28.98,2.69 L27.27,2.69 L27.27,1.35 L25.69,1.54 L25.69,2.69 L24.58,2.69 L24.58,3.78 L25.69,3.78 L25.69,6.19 C25.69,7.41 26.35,8.17 27.74,8.17 Z" id="xt" fill="#FFFFFF" fill-rule="nonzero"></path>
        <rect id="Rectangle-Copy-4" stroke="#9013FE" x="9" y="12" width="7" height="7"></rect>
    </g>
</svg>