<?xml version="1.0" encoding="UTF-8"?>
<svg width="20px" height="20px" viewBox="0 0 20 20" version="1.1" xmlns="http://www.w3.org/2000/svg">
    <g stroke="none" stroke-width="1" fill="none" fill-rule="evenodd">
        <path d="M3.256,5.078 C3.61,5.078 3.946,4.982 4.18,4.832 L3.94,4.388 C3.778,4.478 3.58,4.538 3.352,4.538 C2.962,4.538 2.8,4.376 2.8,4.034 L2.8,2.324 L3.796,2.324 L3.874,1.832 L2.8,1.832 L2.8,1.046 L2.128,1.124 L2.128,1.832 L1.426,1.832 L1.426,2.324 L2.128,2.324 L2.128,4.04 C2.128,4.664 2.518,5.078 3.256,5.078 Z M5.602,5 L6.376,3.704 L7.156,5 L7.942,5 L6.802,3.302 L7.792,1.832 L7.054,1.832 L6.406,2.948 L5.758,1.832 L4.984,1.832 L5.998,3.332 L4.858,5 L5.602,5 Z M10.456,5.078 C10.81,5.078 11.146,4.982 11.38,4.832 L11.14,4.388 C10.978,4.478 10.78,4.538 10.552,4.538 C10.162,4.538 10,4.376 10,4.034 L10,2.324 L10.996,2.324 L11.074,1.832 L10,1.832 L10,1.046 L9.328,1.124 L9.328,1.832 L8.626,1.832 L8.626,2.324 L9.328,2.324 L9.328,4.04 C9.328,4.664 9.718,5.078 10.456,5.078 Z M12.802,5 L13.576,3.704 L14.356,5 L15.142,5 L14.002,3.302 L14.992,1.832 L14.254,1.832 L13.606,2.948 L12.958,1.832 L12.184,1.832 L13.198,3.332 L12.058,5 L12.802,5 Z M17.656,5.078 C18.01,5.078 18.346,4.982 18.58,4.832 L18.34,4.388 C18.178,4.478 17.98,4.538 17.752,4.538 C17.362,4.538 17.2,4.376 17.2,4.034 L17.2,2.324 L18.196,2.324 L18.274,1.832 L17.2,1.832 L17.2,1.046 L16.528,1.124 L16.528,1.832 L15.826,1.832 L15.826,2.324 L16.528,2.324 L16.528,4.04 C16.528,4.664 16.918,5.078 17.656,5.078 Z" fill="#FFFFFF" fill-rule="nonzero"></path>
        <path d="M3.256,19.078 C3.61,19.078 3.946,18.982 4.18,18.832 L3.94,18.388 C3.778,18.478 3.58,18.538 3.352,18.538 C2.962,18.538 2.8,18.376 2.8,18.034 L2.8,16.324 L3.796,16.324 L3.874,15.832 L2.8,15.832 L2.8,15.046 L2.128,15.124 L2.128,15.832 L1.426,15.832 L1.426,16.324 L2.128,16.324 L2.128,18.04 C2.128,18.664 2.518,19.078 3.256,19.078 Z M5.602,19 L6.376,17.704 L7.156,19 L7.942,19 L6.802,17.302 L7.792,15.832 L7.054,15.832 L6.406,16.948 L5.758,15.832 L4.984,15.832 L5.998,17.332 L4.858,19 L5.602,19 Z M10.456,19.078 C10.81,19.078 11.146,18.982 11.38,18.832 L11.14,18.388 C10.978,18.478 10.78,18.538 10.552,18.538 C10.162,18.538 10,18.376 10,18.034 L10,16.324 L10.996,16.324 L11.074,15.832 L10,15.832 L10,15.046 L9.328,15.124 L9.328,15.832 L8.626,15.832 L8.626,16.324 L9.328,16.324 L9.328,18.04 C9.328,18.664 9.718,19.078 10.456,19.078 Z M12.802,19 L13.576,17.704 L14.356,19 L15.142,19 L14.002,17.302 L14.992,15.832 L14.254,15.832 L13.606,16.948 L12.958,15.832 L12.184,15.832 L13.198,17.332 L12.058,19 L12.802,19 Z M17.656,19.078 C18.01,19.078 18.346,18.982 18.58,18.832 L18.34,18.388 C18.178,18.478 17.98,18.538 17.752,18.538 C17.362,18.538 17.2,18.376 17.2,18.034 L17.2,16.324 L18.196,16.324 L18.274,15.832 L17.2,15.832 L17.2,15.046 L16.528,15.124 L16.528,15.832 L15.826,15.832 L15.826,16.324 L16.528,16.324 L16.528,18.04 C16.528,18.664 16.918,19.078 17.656,19.078 Z" fill="#FFFFFF" fill-rule="nonzero"></path>
        <path d="M13.002,12 L13.776,10.704 L14.556,12 L15.342,12 L14.202,10.302 L15.192,8.832 L14.454,8.832 L13.806,9.948 L13.158,8.832 L12.384,8.832 L13.398,10.332 L12.258,12 L13.002,12 Z M17.856,12.078 C18.21,12.078 18.546,11.982 18.78,11.832 L18.54,11.388 C18.378,11.478 18.18,11.538 17.952,11.538 C17.562,11.538 17.4,11.376 17.4,11.034 L17.4,9.324 L18.396,9.324 L18.474,8.832 L17.4,8.832 L17.4,8.046 L16.728,8.124 L16.728,8.832 L16.026,8.832 L16.026,9.324 L16.728,9.324 L16.728,11.04 C16.728,11.664 17.118,12.078 17.856,12.078 Z" fill="#FFFFFF" fill-rule="nonzero"></path>
        <polygon fill="#FFFFFF" fill-rule="nonzero" points="2.002 12 2.776 10.704 3.556 12 4.342 12 3.202 10.302 4.192 8.832 3.454 8.832 2.806 9.948 2.158 8.832 1.384 8.832 2.398 10.332 1.258 12"></polygon>
        <rect stroke="#9013FE" x="6" y="8" width="4" height="4"></rect>
    </g>
</svg>