<?xml version="1.0" encoding="UTF-8"?>
<svg width="32px" height="32px" viewBox="0 0 32 32" version="1.1" xmlns="http://www.w3.org/2000/svg" xmlns:xlink="http://www.w3.org/1999/xlink">
    <g id="Artboard-Copy-4" stroke="none" stroke-width="1" fill="none" fill-rule="evenodd">
        <rect id="Rectangle" stroke-opacity="0.8" stroke="#FFFFFF" x="2" y="2" width="28" height="28" rx="1"></rect>
        <path d="M9.212,19.97 L9.212,12.222 L11.799,12.222 L11.955,11 L5,11 L5,12.222 L7.704,12.222 L7.704,19.97 L9.212,19.97 Z M14.542,19.97 L16.219,17.162 L17.909,19.97 L19.612,19.97 L17.142,16.291 L19.287,13.106 L17.688,13.106 L16.284,15.524 L14.88,13.106 L13.203,13.106 L15.4,16.356 L12.93,19.97 L14.542,19.97 Z M20,8 L28,8 L28,23 L20,23 L20,8 Z M25.059,20.139 C25.826,20.139 26.554,19.931 27.061,19.606 L26.541,18.644 C26.19,18.839 25.761,18.969 25.267,18.969 C24.422,18.969 24.071,18.618 24.071,17.877 L24.071,14.172 L26.229,14.172 L26.398,13.106 L24.071,13.106 L24.071,11.403 L22.615,11.572 L22.615,13.106 L21.094,13.106 L21.094,14.172 L22.615,14.172 L22.615,17.89 C22.615,19.242 23.46,20.139 25.059,20.139 Z" id="Txt" fill="#FFFFFF" fill-rule="nonzero"></path>
    </g>
</svg>