<?xml version="1.0" encoding="UTF-8"?>
<svg width="15px" height="15px" viewBox="0 0 15 15" version="1.1" xmlns="http://www.w3.org/2000/svg" xmlns:xlink="http://www.w3.org/1999/xlink">
    <g id="Artboard-Copy-5" stroke="none" stroke-width="1" fill="none" fill-rule="evenodd">
        <rect id="Rectangle" stroke="#4A90E2" fill="#1A1A1A" x="0.5" y="0.5" width="14" height="14" rx="0.5"></rect>
        <path d="M4.344,9.74 L4.344,6.164 L5.538,6.164 L5.61,5.6 L2.4,5.6 L2.4,6.164 L3.648,6.164 L3.648,9.74 L4.344,9.74 Z M6.804,9.74 L7.578,8.444 L8.358,9.74 L9.144,9.74 L8.004,8.042 L8.994,6.572 L8.256,6.572 L7.608,7.688 L6.96,6.572 L6.186,6.572 L7.2,8.072 L6.06,9.74 L6.804,9.74 Z M11.658,9.818 C12.012,9.818 12.348,9.722 12.582,9.572 L12.342,9.128 C12.18,9.218 11.982,9.278 11.754,9.278 C11.364,9.278 11.202,9.116 11.202,8.774 L11.202,7.064 L12.198,7.064 L12.276,6.572 L11.202,6.572 L11.202,5.786 L10.53,5.864 L10.53,6.572 L9.828,6.572 L9.828,7.064 L10.53,7.064 L10.53,8.78 C10.53,9.404 10.92,9.818 11.658,9.818 Z" id="Txt" fill="#4A90E2" fill-rule="nonzero"></path>
    </g>
</svg>